<svg xmlns="http://www.w3.org/2000/svg" viewBox="0 0 430 155"><defs><style>.cls-1{fill:#f29600;}.cls-2{fill:#fff;}</style></defs><title>アセット 3</title><g id="レイヤー_2" data-name="レイヤー 2"><g id="レイヤー_1-2" data-name="レイヤー 1"><rect class="cls-1" width="430" height="155"/><g id="白抜き"><path class="cls-2" d="M6,101c0,2.24,1,3.5,3.5,3.5S13,103.27,13,101V98.47h7v44c0,2.24,1,3.5,3.5,3.5s3.5-1.26,3.5-3.5v-44h7V101c0,2.24,1,3.5,3.5,3.5S41,103.27,41,101V91.47H6Z"/><path class="cls-2" d="M77.9,119.8c-.14-3.64,0-6.4-3-9a8.69,8.69,0,0,0-6.51-2.34H63.9a10.44,10.44,0,0,0-5.73,2.13L53,114.06V99c0-2.31-.63-4.62-3.5-4.62S46,96.69,46,99v42.35c0,2.31.63,4.62,3.5,4.62s3.5-2.31,3.5-4.62V121.83l9.65-6a2.84,2.84,0,0,1,1.81-.38h3.08c3.78,0,3.57,2.27,3.71,5.49l.7,20.6c.07,2.24.63,4.49,3.36,4.49,3,0,3.36-2.69,3.29-5.07Z"/><path class="cls-2" d="M107.81,139.47H103V112.94c0-4-1.35-4.47-5.2-4.47H90.72c-2.24,0-4.62.63-4.62,3.5s2.66,3.5,4.62,3.5H96v24H90.72c-2.24,0-4.62.63-4.62,3.5s2.66,3.5,4.62,3.5h17.08c2,0,4.62-.56,4.62-3.5S110,139.47,107.81,139.47Z"/><path class="cls-2" d="M95.77,101.47h3.85A3.28,3.28,0,0,0,103,97.88V94.66c0-2.38-1.56-3.2-3.38-3.2H95.77c-1.82,0-2.77.82-2.77,3.2v3.22C93,100.26,93.95,101.47,95.77,101.47Z"/><path class="cls-2" d="M152.12,119.8c-.14-3.64,0-6.4-3-9a8.39,8.39,0,0,0-6.23-2.34h-5c-2.17,0-3.88,1-5.63,2.13L127,114.06v-.91c0-2.38-.49-4.9-3.5-4.9s-3.5,2.52-3.5,5v28.14c0,2.31.63,4.62,3.5,4.62s3.5-2.31,3.5-4.62V121.83l9.76-6a3.17,3.17,0,0,1,1.92-.38h2.24c4.06,0,4.41,1.36,4.55,5.49l.7,20.6c.07,2.24.63,4.49,3.36,4.49,3,0,3.36-2.69,3.29-5.07Z"/><path class="cls-2" d="M189.8,139,174,125.82,187,115c1.19-1,2.24-1.75,2.24-3.36a3.38,3.38,0,0,0-3.36-3.43c-1.61,0-3.29,1.68-4.48,2.73l-15.4,13V99c0-2.31-.13-4.62-3-4.62s-3,2.31-3,4.62v42.35c0,2.31.13,4.62,3,4.62s3-2.31,3-4.62v-8.54l2.8-2.52,16.87,14.07c1,.77,1.82,1.61,3.15,1.61a3.38,3.38,0,0,0,3.36-3.43C192.18,140.8,191.06,140,189.8,139Z"/><path class="cls-2" d="M224.48,124.45l-16.8-7.63c-1-.42-1.82-.59-1.82-1.71,0-2.17,2.38-1.64,3.78-1.64h10.22c1.82,0,3-.11,4.13,1.08a3.57,3.57,0,0,0,6.3-2.15c0-1.89-1.4-2.65-2.66-3.7-2.52-2.1-4.06-2.23-7.77-2.23H208.38c-5,0-9.24,3.11-9.24,8.43,0,4.34,2.17,6.46,5.88,8.14l15.82,7.18c1.54.7,3.5,1.84,3.5,3.45,0,3.92-3.22,3.8-5.6,3.8h-9.1c-2.1,0-4.2-.24-5.39-1.57a3.29,3.29,0,0,0-2.59-1.24,3.42,3.42,0,0,0-3.5,3.33c0,1.68,1.82,3.17,3.08,4.15,2.52,2,4.9,2.33,8.4,2.33H220c6.44,0,11.06-3.46,11.06-10.25C231.06,129.38,228.82,126.41,224.48,124.45Z"/><path class="cls-2" d="M266,133.59a3.54,3.54,0,0,0-3.36,2.84c-.7,2.73-2,3-4.69,3h-3.43c-4.62,0-4.56-2.38-4.56-6.16V115.47h11.36c2,0,4.62-.56,4.62-3.5s-2.38-3.5-4.62-3.5H250v-7.08c0-2.31-.13-4.62-3-4.62s-3,2.31-3,4.62v7.08h-2.81c-2.24,0-4.62.63-4.62,3.5s2.66,3.5,4.62,3.5H244v17.77c0,3.64-.46,6.75,2.13,9.63a10.51,10.51,0,0,0,8.36,3.6h3.43c3.57,0,6.79-.73,9.24-3.67a10.4,10.4,0,0,0,2.31-5.72A3.48,3.48,0,0,0,266,133.59Z"/><path class="cls-2" d="M304,111.37c-2.66-2.66-5.18-2.9-8.68-2.9H286.1c-2.24,0-4.62.63-4.62,3.5s2.66,3.5,4.62,3.5h8.33c4.83,0,6.57.34,6.57,5.38v1.62H286c-2.94,0-5.44.45-7.75,2.48-2.52,2.24-3.2,4.23-3.2,7.45v2.94c0,3.5.61,6.2,3.41,8.51a10.51,10.51,0,0,0,7.54,2.62h6.44c2.17,0,2.24-.24,4.13-1.22l4.62-2.5a3.37,3.37,0,0,0,3.43,3.3c2.24,0,3.22-2,3.15-4l-.7-22.78C307,115.95,306.61,114,304,111.37Zm-3,24-7.69,4.06h-7.42c-1.61,0-3.89-.7-3.89-2.94V132c0-2.45,2.21-2.58,4-2.58H296c3.71,0,5,.76,5,4.47Z"/><path class="cls-2" d="M322.47,120.08l3.89-3.18a5.55,5.55,0,0,1,3.68-1.43h11.83c2,0,4.62-.56,4.62-3.5s-2.38-3.5-4.62-3.5H331.23c-3.92,0-5.53,0-8.68,2.55l-4.76,4.07c-3.22,2.66-3.78,4.63-3.78,8.77v6.51c0,4.13.56,6.16,3.78,8.82l4.87,4.38c3.15,2.59,4.66,2.9,8.58,2.9h10.64c2.24,0,4.62-.63,4.62-3.5s-2.66-3.5-4.62-3.5H330a6.49,6.49,0,0,1-3.85-1.79l-3.71-3.48a3.3,3.3,0,0,1-1.47-2.92v-8.33A3.21,3.21,0,0,1,322.47,120.08Z"/><path class="cls-2" d="M383.06,139l-15.82-13.16,13-10.78c1.19-1,2.24-1.75,2.24-3.36a3.38,3.38,0,0,0-3.36-3.43c-1.61,0-2.92,1.68-4.11,2.73l-15,13V99c0-2.31-.63-4.62-3.5-4.62S353,96.69,353,99v42.35c0,2.31.63,4.62,3.5,4.62s3.5-2.31,3.5-4.62v-8.54l2.43-2.52,16.69,14.07c1,.77,1.73,1.61,3.06,1.61a3.34,3.34,0,0,0,3.31-3.43C385.49,140.8,384.32,140,383.06,139Z"/><path class="cls-2" d="M417.74,126.45l-16.8-7.63c-1-.42-1.82-.59-1.82-1.71,0-2.17,2.38-1.64,3.78-1.64h10.22c1.82,0,3-.11,4.13,1.08a3.57,3.57,0,0,0,6.3-2.15c0-1.89-1.4-2.65-2.66-3.7-2.52-2.1-4.06-2.23-7.77-2.23H401.64c-5,0-9.24,3.11-9.24,8.43,0,4.34,2.17,6.46,5.88,8.14l15.82,7.18c1.54.7,3.5,1.84,3.5,3.45,0,3.92-3.22,3.8-5.6,3.8h-9.1c-2.1,0-4.2-.24-5.39-1.57a3.29,3.29,0,0,0-2.59-1.24,3.42,3.42,0,0,0-3.5,3.33c0,1.68,1.82,3.17,3.08,4.15,2.52,2,4.9,2.33,8.4,2.33h10.36c6.44,0,11.06-3.46,11.06-10.25C424.32,131.38,422.08,128.41,417.74,126.45Z"/><path class="cls-2" d="M214.61,23.59A1.38,1.38,0,0,0,216,22.21l.53-11.76a1.91,1.91,0,1,0-3.83,0l.53,11.76A1.38,1.38,0,0,0,214.61,23.59Z"/><path class="cls-2" d="M194.49,28a1.38,1.38,0,0,0,2.4-1.38l-5.42-10.45A1.92,1.92,0,1,0,188.15,18Z"/><path class="cls-2" d="M170.7,36.9l10.45,5.42a1.38,1.38,0,0,0,1.38-2.4l-9.92-6.34a1.91,1.91,0,1,0-1.91,3.32Z"/><path class="cls-2" d="M248.07,77.77a1.38,1.38,0,0,0-1.38,2.4l9.92,6.34a1.92,1.92,0,0,0,1.92-3.32Z"/><path class="cls-2" d="M165,62l11.76-.53a1.38,1.38,0,0,0,0-2.77L165,58.13A1.92,1.92,0,1,0,165,62Z"/><path class="cls-2" d="M251.06,60a1.38,1.38,0,0,0,1.38,1.38l11.76.53a1.92,1.92,0,0,0,0-3.83l-11.76.53A1.38,1.38,0,0,0,251.06,60Z"/><path class="cls-2" d="M181.15,77.77,170.7,83.19a1.91,1.91,0,1,0,1.91,3.32l9.92-6.34a1.38,1.38,0,0,0-1.38-2.4Z"/><path class="cls-2" d="M248.07,42.33l10.45-5.42a1.92,1.92,0,0,0-1.92-3.32l-9.92,6.34a1.38,1.38,0,0,0,1.38,2.4Z"/><path class="cls-2" d="M232.84,28.48a1.38,1.38,0,0,0,1.89-.51L241.07,18a1.92,1.92,0,0,0-3.32-1.92l-5.42,10.45A1.38,1.38,0,0,0,232.84,28.48Z"/><path class="cls-2" d="M239.8,78a31.14,31.14,0,1,0-50.38,0A34.31,34.31,0,0,0,193.13,82c.88.85,1.72,1.65,2.31,2.32,2,2.25,2,5,2.08,7.24,0,2.45.1,11,4.37,11h25.46c4.27,0,4.33-8.5,4.37-11,0-2.27.08-4.92,2.08-7.17.59-.67,1.42-1.5,2.31-2.35A34.34,34.34,0,0,0,239.8,78Zm-5.58,2c-.92.89-1.8,1.73-2.45,2.47-2.66,3-2.72,6.37-2.76,8.84,0,3-.23,3.14-1.66,3.14H201.88c-1.43,0-1.61-.16-1.66-3.14,0-2.47-.1-5.85-2.76-8.85-.66-.75-1.53-1.58-2.45-2.47a32.75,32.75,0,0,1-3.4-3.58,28.44,28.44,0,1,1,46,0A32.6,32.6,0,0,1,234.21,80Z"/></g></g></g></svg>