<svg xmlns="http://www.w3.org/2000/svg" viewBox="0 0 418.32 135.93"><defs><style>.cls-1{fill:#f29600;}</style></defs><title>アセット 4</title><g id="レイヤー_2" data-name="レイヤー 2"><g id="レイヤー_1-2" data-name="レイヤー 1"><g id="Thinkstacks"><path class="cls-1" d="M0,90.5C0,92.74,1,94,3.5,94S7,92.74,7,90.5V87.93h7v44c0,2.24,1,3.5,3.5,3.5s3.5-1.26,3.5-3.5v-44h7V90.5c0,2.24,1,3.5,3.5,3.5S35,92.74,35,90.5V80.93H0Z"/><path class="cls-1" d="M71.9,109.26c-.14-3.64,0-6.4-3-9a8.69,8.69,0,0,0-6.51-2.34H57.9a10.44,10.44,0,0,0-5.73,2.13L47,103.52V88.47c0-2.31-.63-4.62-3.5-4.62S40,86.16,40,88.47v42.35c0,2.31.63,4.62,3.5,4.62s3.5-2.31,3.5-4.62V111.29l9.65-6a2.84,2.84,0,0,1,1.81-.38h3.08c3.78,0,3.57,2.27,3.71,5.49L66,131c.07,2.24.63,4.49,3.36,4.49,3,0,3.36-2.69,3.29-5.07Z"/><path class="cls-1" d="M101.81,128.93H97V102.4c0-4-1.35-4.47-5.2-4.47H84.72c-2.24,0-4.62.63-4.62,3.5s2.66,3.5,4.62,3.5H90v24H84.72c-2.24,0-4.62.63-4.62,3.5s2.66,3.5,4.62,3.5h17.08c2,0,4.62-.56,4.62-3.5S104,128.93,101.81,128.93Z"/><path class="cls-1" d="M89.77,90.93h3.85A3.28,3.28,0,0,0,97,87.35V84.13c0-2.38-1.56-3.2-3.38-3.2H89.77c-1.82,0-2.77.82-2.77,3.2v3.22C87,89.73,87.95,90.93,89.77,90.93Z"/><path class="cls-1" d="M146.12,109.26c-.14-3.64,0-6.4-3-9a8.39,8.39,0,0,0-6.23-2.34h-5c-2.17,0-3.88,1-5.63,2.13L121,103.52v-.91c0-2.38-.49-4.9-3.5-4.9s-3.5,2.52-3.5,5v28.14c0,2.31.63,4.62,3.5,4.62s3.5-2.31,3.5-4.62V111.29l9.76-6a3.17,3.17,0,0,1,1.92-.38h2.24c4.06,0,4.41,1.36,4.55,5.49l.7,20.6c.07,2.24.63,4.49,3.36,4.49,3,0,3.36-2.69,3.29-5.07Z"/><path class="cls-1" d="M183.8,128.45,168,115.28l13-10.78c1.19-1,2.24-1.75,2.24-3.36a3.38,3.38,0,0,0-3.36-3.43c-1.61,0-3.29,1.68-4.48,2.73l-15.4,13V88.47c0-2.31-.13-4.62-3-4.62s-3,2.31-3,4.62v42.35c0,2.31.13,4.62,3,4.62s3-2.31,3-4.62v-8.54l2.8-2.52,16.87,14.07c1,.77,1.82,1.61,3.15,1.61a3.38,3.38,0,0,0,3.36-3.43C186.18,130.27,185.06,129.5,183.8,128.45Z"/><path class="cls-1" d="M218.48,115.91l-16.8-7.63c-1-.42-1.82-.59-1.82-1.71,0-2.17,2.38-1.64,3.78-1.64h10.22c1.82,0,3-.11,4.13,1.08a3.57,3.57,0,0,0,6.3-2.15c0-1.89-1.4-2.65-2.66-3.7-2.52-2.1-4.06-2.23-7.77-2.23H202.38c-5,0-9.24,3.11-9.24,8.43,0,4.34,2.17,6.46,5.88,8.14l15.82,7.18c1.54.7,3.5,1.84,3.5,3.45,0,3.92-3.22,3.8-5.6,3.8h-9.1c-2.1,0-4.2-.24-5.39-1.57a3.29,3.29,0,0,0-2.59-1.24,3.42,3.42,0,0,0-3.5,3.33c0,1.68,1.82,3.17,3.08,4.15,2.52,2,4.9,2.33,8.4,2.33H214c6.44,0,11.06-3.46,11.06-10.25C225.06,120.85,222.82,117.87,218.48,115.91Z"/><path class="cls-1" d="M260,123.05a3.54,3.54,0,0,0-3.36,2.83c-.7,2.73-2,3-4.69,3h-3.43c-4.62,0-4.56-2.38-4.56-6.16V104.93h11.36c2,0,4.62-.56,4.62-3.5s-2.38-3.5-4.62-3.5H244V90.85c0-2.31-.13-4.62-3-4.62s-3,2.31-3,4.62v7.08h-2.81c-2.24,0-4.62.63-4.62,3.5s2.66,3.5,4.62,3.5H238v17.77c0,3.64-.46,6.75,2.13,9.63a10.51,10.51,0,0,0,8.36,3.6h3.43c3.57,0,6.79-.73,9.24-3.67a10.4,10.4,0,0,0,2.31-5.72A3.48,3.48,0,0,0,260,123.05Z"/><path class="cls-1" d="M298,100.83c-2.66-2.66-5.18-2.9-8.68-2.9H280.1c-2.24,0-4.62.63-4.62,3.5s2.66,3.5,4.62,3.5h8.33c4.83,0,6.57.34,6.57,5.38v1.62H280c-2.94,0-5.44.45-7.75,2.48-2.52,2.24-3.2,4.23-3.2,7.45v2.94c0,3.5.61,6.2,3.41,8.51a10.51,10.51,0,0,0,7.54,2.62h6.44c2.17,0,2.24-.24,4.13-1.22l4.62-2.5a3.37,3.37,0,0,0,3.43,3.3c2.24,0,3.22-2,3.15-4l-.7-22.78C301,105.41,300.61,103.42,298,100.83Zm-3,24-7.69,4.06h-7.42c-1.61,0-3.89-.7-3.89-2.94v-4.48c0-2.45,2.21-2.58,4-2.58H290c3.71,0,5,.76,5,4.47Z"/><path class="cls-1" d="M316.47,109.54l3.89-3.18a5.55,5.55,0,0,1,3.68-1.43h11.83c2,0,4.62-.56,4.62-3.5s-2.38-3.5-4.62-3.5H325.23c-3.92,0-5.53,0-8.68,2.55l-4.76,4.07c-3.22,2.66-3.78,4.63-3.78,8.77v6.51c0,4.13.56,6.16,3.78,8.82l4.87,4.38c3.15,2.59,4.66,2.9,8.58,2.9h10.64c2.24,0,4.62-.63,4.62-3.5s-2.66-3.5-4.62-3.5H324a6.49,6.49,0,0,1-3.85-1.79l-3.71-3.48a3.3,3.3,0,0,1-1.47-2.92v-8.33A3.21,3.21,0,0,1,316.47,109.54Z"/><path class="cls-1" d="M377.06,128.45l-15.82-13.16,13-10.78c1.19-1,2.24-1.75,2.24-3.36a3.38,3.38,0,0,0-3.36-3.43c-1.61,0-2.92,1.68-4.11,2.73l-15,13V88.47c0-2.31-.63-4.62-3.5-4.62s-3.5,2.31-3.5,4.62v42.35c0,2.31.63,4.62,3.5,4.62s3.5-2.31,3.5-4.62v-8.54l2.43-2.52,16.69,14.07c1,.77,1.73,1.61,3.06,1.61a3.34,3.34,0,0,0,3.31-3.43C379.49,130.27,378.32,129.5,377.06,128.45Z"/><path class="cls-1" d="M411.74,115.91l-16.8-7.63c-1-.42-1.82-.59-1.82-1.71,0-2.17,2.38-1.64,3.78-1.64h10.22c1.82,0,3-.11,4.13,1.08a3.57,3.57,0,0,0,6.3-2.15c0-1.89-1.4-2.65-2.66-3.7-2.52-2.1-4.06-2.23-7.77-2.23H395.64c-5,0-9.24,3.11-9.24,8.43,0,4.34,2.17,6.46,5.88,8.14l15.82,7.18c1.54.7,3.5,1.84,3.5,3.45,0,3.92-3.22,3.8-5.6,3.8h-9.1c-2.1,0-4.2-.24-5.39-1.57a3.29,3.29,0,0,0-2.59-1.24,3.42,3.42,0,0,0-3.5,3.33c0,1.68,1.82,3.17,3.08,4.15,2.52,2,4.9,2.33,8.4,2.33h10.36c6.44,0,11.06-3.46,11.06-10.25C418.32,120.85,416.08,117.87,411.74,115.91Z"/></g><g id="電球"><path class="cls-1" d="M208.61,15.06A1.38,1.38,0,0,0,210,13.68l.53-11.76a1.91,1.91,0,1,0-3.83,0l.53,11.76A1.38,1.38,0,0,0,208.61,15.06Z"/><path class="cls-1" d="M188.49,19.44a1.38,1.38,0,0,0,2.4-1.38L185.47,7.6a1.92,1.92,0,1,0-3.32,1.92Z"/><path class="cls-1" d="M164.7,28.37l10.45,5.42a1.38,1.38,0,0,0,1.38-2.4l-9.92-6.34a1.91,1.91,0,1,0-1.91,3.32Z"/><path class="cls-1" d="M242.07,69.23a1.38,1.38,0,0,0-1.38,2.4L250.61,78a1.92,1.92,0,0,0,1.92-3.32Z"/><path class="cls-1" d="M159,53.43l11.76-.53a1.38,1.38,0,0,0,0-2.77L159,49.6a1.92,1.92,0,1,0,0,3.83Z"/><path class="cls-1" d="M245.06,51.51a1.38,1.38,0,0,0,1.38,1.38l11.76.53a1.92,1.92,0,0,0,0-3.83l-11.76.53A1.38,1.38,0,0,0,245.06,51.51Z"/><path class="cls-1" d="M175.15,69.23,164.7,74.65A1.91,1.91,0,1,0,166.61,78l9.92-6.34a1.38,1.38,0,0,0-1.38-2.4Z"/><path class="cls-1" d="M242.07,33.79l10.45-5.42a1.92,1.92,0,0,0-1.92-3.32l-9.92,6.34a1.38,1.38,0,0,0,1.38,2.4Z"/><path class="cls-1" d="M226.84,19.94a1.38,1.38,0,0,0,1.89-.51l6.34-9.92a1.92,1.92,0,0,0-3.32-1.92l-5.42,10.45A1.38,1.38,0,0,0,226.84,19.94Z"/><path class="cls-1" d="M233.8,69.49a31.14,31.14,0,1,0-50.38,0,34.31,34.31,0,0,0,3.71,3.94c.88.85,1.72,1.65,2.31,2.32,2,2.25,2,5,2.08,7.24,0,2.45.1,11,4.37,11h25.46c4.27,0,4.33-8.5,4.37-11,0-2.27.08-4.92,2.08-7.17.59-.67,1.42-1.5,2.31-2.35A34.34,34.34,0,0,0,233.8,69.49Zm-5.58,2c-.92.89-1.8,1.73-2.45,2.47-2.66,3-2.72,6.37-2.76,8.84,0,3-.23,3.14-1.66,3.14H195.88c-1.43,0-1.61-.16-1.66-3.14,0-2.47-.1-5.85-2.76-8.85-.66-.75-1.53-1.58-2.45-2.47a32.75,32.75,0,0,1-3.4-3.58,28.44,28.44,0,1,1,46,0A32.6,32.6,0,0,1,228.21,71.47Z"/></g></g></g></svg>